<?xml version="1.0" encoding="UTF-8" standalone="no"?>
<!DOCTYPE svg PUBLIC "-//W3C//DTD SVG 1.1//EN" "http://www.w3.org/Graphics/SVG/1.1/DTD/svg11.dtd">
<svg width="100%" height="100%" viewBox="0 0 40 26" version="1.1" xmlns="http://www.w3.org/2000/svg" xmlns:xlink="http://www.w3.org/1999/xlink" xml:space="preserve" style="fill-rule:evenodd;clip-rule:evenodd;stroke-linejoin:round;stroke-miterlimit:1.41421;">
    <g transform="matrix(1,0,0,1,-490,-2018)">
        <g transform="matrix(2.19844,0,0,3.42125,0,0)">
            <g id="Mail" transform="matrix(0.454869,1.08083e-32,5.60669e-33,0.292291,-31.5224,477.749)">
                <path d="M559.3,383.5L559.3,409.5L599.3,409.5L599.3,383.5L559.3,383.5ZM582.7,399.4C581.8,400.3 579.3,402.8 579.3,402.8C579.3,402.8 576.8,400.3 575.9,399.4L562,385.5L596.5,385.5L582.7,399.4ZM571.6,396.5L561.3,406.8L561.3,386.2L571.6,396.5ZM572.3,397.2L575.2,400.1C576.389,401.236 579.323,404.095 579.323,404.095C579.323,404.095 582.3,401.2 583.4,400.1L586.3,397.2L596.6,407.5L562,407.5L572.3,397.2ZM587,396.5L597.3,386.2L597.3,406.9L587,396.5Z" style="fill-rule:nonzero;"/>
            </g>
        </g>
    </g>
</svg>
