<?xml version="1.0" encoding="UTF-8" standalone="no"?>
<!DOCTYPE svg PUBLIC "-//W3C//DTD SVG 1.1//EN" "http://www.w3.org/Graphics/SVG/1.1/DTD/svg11.dtd">
<svg width="100%" height="100%" viewBox="0 0 60 39" version="1.1" xmlns="http://www.w3.org/2000/svg" xmlns:xlink="http://www.w3.org/1999/xlink" xml:space="preserve" style="fill-rule:evenodd;clip-rule:evenodd;stroke-linejoin:round;stroke-miterlimit:1.41421;">
    <g transform="matrix(1,0,0,1,-345.125,-4083)">
        <g transform="matrix(1,0,0,3.82309,0,0)">
            <g id="Mail" transform="matrix(1.5,1.45084e-32,1.84889e-32,0.392353,-493.825,917.517)">
                <path d="M559.3,383.5L559.3,409.5L599.3,409.5L599.3,383.5L559.3,383.5ZM582.7,399.4C581.8,400.3 580.6,400.8 579.3,400.8C578,400.8 576.8,400.3 575.9,399.4L562,385.5L596.5,385.5L582.7,399.4ZM571.6,396.5L561.3,406.8L561.3,386.2L571.6,396.5ZM572.3,397.2L575.2,400.1C576.3,401.2 577.8,401.8 579.3,401.8C580.9,401.8 582.3,401.2 583.4,400.1L586.3,397.2L596.6,407.5L562,407.5L572.3,397.2ZM587,396.5L597.3,386.2L597.3,406.9L587,396.5Z" style="fill-rule:nonzero;"/>
            </g>
        </g>
    </g>
</svg>
