<?xml version="1.0" encoding="UTF-8" standalone="no"?>
<!DOCTYPE svg PUBLIC "-//W3C//DTD SVG 1.1//EN" "http://www.w3.org/Graphics/SVG/1.1/DTD/svg11.dtd">
<svg width="100%" height="100%" viewBox="0 0 206 115" version="1.1" xmlns="http://www.w3.org/2000/svg" xmlns:xlink="http://www.w3.org/1999/xlink" xml:space="preserve" style="fill-rule:evenodd;clip-rule:evenodd;stroke-linejoin:round;stroke-miterlimit:1.41421;">
    <g transform="matrix(1,0,0,1,-187.561,-985.559)">
        <g transform="matrix(1,0,0,1.51075,0,0)">
            <g id="emailarrowicon">
                <g id="Down" transform="matrix(1,2.44764e-32,1.2326e-32,0.661921,-12.824,438.634)">
                    <path d="M302.5,408L323,388.1L320.9,386L302.5,403.9L284.1,386L282,388.1L302.5,408Z" style="fill-rule:nonzero;stroke:black;stroke-width:1px;"/>
                </g>
                <g id="Down1" transform="matrix(1,2.44764e-32,1.2326e-32,0.661921,-53.824,424.857)">
                    <path d="M302.5,408L323,388.1L320.9,386L302.5,403.9L284.1,386L282,388.1L302.5,408Z" style="fill-rule:nonzero;stroke:black;stroke-width:1px;"/>
                </g>
                <g id="Down2" transform="matrix(1,2.44764e-32,1.2326e-32,0.661921,28.176,424.071)">
                    <path d="M302.5,408L323,388.1L320.9,386L302.5,403.9L284.1,386L282,388.1L302.5,408Z" style="fill-rule:nonzero;stroke:black;stroke-width:1px;"/>
                </g>
                <g transform="matrix(1,0,0,0.661921,0.600142,-0.472471)">
                    <rect x="189.961" y="989.273" width="199.992" height="108.781" style="fill:none;stroke:black;stroke-width:6px;stroke-linecap:round;stroke-miterlimit:1.5;"/>
                </g>
            </g>
        </g>
    </g>
</svg>
