<?xml version="1.0" encoding="UTF-8" standalone="no"?>
<!DOCTYPE svg PUBLIC "-//W3C//DTD SVG 1.1//EN" "http://www.w3.org/Graphics/SVG/1.1/DTD/svg11.dtd">
<svg width="100%" height="100%" viewBox="0 0 16 11" version="1.1" xmlns="http://www.w3.org/2000/svg" xmlns:xlink="http://www.w3.org/1999/xlink" xml:space="preserve" style="fill-rule:evenodd;clip-rule:evenodd;stroke-linejoin:round;stroke-miterlimit:1.41421;">
    <g transform="matrix(1,0,0,1,-520.912,-461.531)">
        <g transform="matrix(1.49813,0,0,1.49813,-259.481,-229.901)">
            <path d="M521.632,467.971L525.422,467.971L525.422,468.611L520.912,468.611L520.912,461.531L523.645,461.531L523.655,462.163L521.632,462.171L521.632,464.611L524.339,464.624L524.339,465.227L521.632,465.241L521.632,467.971Z" style="fill:rgb(77,77,77);fill-rule:nonzero;"/>
            <path d="M527.552,468.611L526.832,468.611L526.832,461.531L528.912,461.531C529.259,461.531 529.581,461.564 529.877,461.631C530.174,461.697 530.431,461.806 530.647,461.956C530.864,462.106 531.032,462.301 531.152,462.541C531.272,462.781 531.332,463.074 531.332,463.421C531.332,463.681 531.286,463.917 531.192,464.131C531.099,464.344 530.972,464.529 530.812,464.686C530.652,464.842 530.462,464.967 530.242,465.061C530.022,465.154 529.782,465.214 529.522,465.241L531.592,468.611L530.712,468.611L528.752,465.301L527.552,465.301L527.552,468.611ZM527.552,464.681L528.802,464.681C529.382,464.681 529.829,464.576 530.142,464.366C530.456,464.156 530.612,463.841 530.612,463.421C530.612,463.187 530.569,462.991 530.482,462.831C530.396,462.671 530.276,462.541 530.122,462.441C529.969,462.341 529.782,462.267 529.562,462.221C529.342,462.174 529.099,462.151 528.832,462.151L527.552,462.151L527.552,464.681Z" style="fill:rgb(77,77,77);fill-rule:nonzero;"/>
        </g>
    </g>
</svg>
