<?xml version="1.0" encoding="UTF-8" standalone="no"?>
<!DOCTYPE svg PUBLIC "-//W3C//DTD SVG 1.1//EN" "http://www.w3.org/Graphics/SVG/1.1/DTD/svg11.dtd">
<svg width="100%" height="100%" viewBox="0 0 133 133" version="1.1" xmlns="http://www.w3.org/2000/svg" xmlns:xlink="http://www.w3.org/1999/xlink" xml:space="preserve" style="fill-rule:evenodd;clip-rule:evenodd;stroke-linecap:round;stroke-linejoin:round;stroke-miterlimit:1.5;">
    <g transform="matrix(1,0,0,1,-268.5,-418.5)">
        <g id="tri-icon" transform="matrix(0.230209,0,0,0.230209,219.917,390.944)">
            <g transform="matrix(1,0,0,1,-0.0916571,-68.7613)">
                <path d="M300,500L500,300L700,500" style="fill:none;stroke:rgb(51,51,51);stroke-width:13.03px;"/>
            </g>
            <g transform="matrix(1,0,0,0.985689,-0.0916571,-64.4679)">
                <path d="M500,500L500,300" style="fill:none;stroke:rgb(51,51,51);stroke-width:13.13px;"/>
            </g>
            <g transform="matrix(1.30316,0,0,1.30316,-117.104,-220.343)">
                <circle cx="310" cy="510" r="10" style="fill:none;stroke:rgb(51,51,51);stroke-width:6.67px;"/>
            </g>
            <g transform="matrix(1.30316,0,0,1.30316,95.9274,-220.343)">
                <circle cx="310" cy="510" r="10" style="fill:none;stroke:rgb(51,51,51);stroke-width:6.67px;"/>
            </g>
            <g transform="matrix(1.30316,0,0,1.30316,308.959,-220.343)">
                <circle cx="310" cy="510" r="10" style="fill:none;stroke:rgb(51,51,51);stroke-width:6.67px;"/>
            </g>
            <g transform="matrix(4.69655,0,0,4.69655,-1201.61,-1159.75)">
                <circle cx="362.292" cy="333.93" r="60.119" style="fill:none;stroke:rgb(51,51,51);stroke-width:2.77px;"/>
            </g>
            <g transform="matrix(2.92929,0,0,2.92929,-471.699,-641.105)">
                <circle cx="331.686" cy="275.935" r="2.966" style="fill:none;stroke:rgb(51,51,51);stroke-width:2.97px;"/>
            </g>
            <g transform="matrix(2.92929,0,0,2.92929,-471.699,-160.168)">
                <circle cx="331.686" cy="275.935" r="2.966" style="fill:none;stroke:rgb(51,51,51);stroke-width:2.97px;"/>
            </g>
            <g transform="matrix(4.34388,0,0,4.34388,-1000.69,-703.287)">
                <text x="305.065px" y="293.91px" style="font-family:'AvenirNext-Regular', 'Avenir Next', sans-serif;font-size:10px;fill:none;">RECENT<tspan x="343.195px 345.695px " y="293.91px 293.91px "> C</tspan>LIENTS</text>
                <text x="305.065px" y="293.91px" style="font-family:'AvenirNext-Regular', 'Avenir Next', sans-serif;font-size:10px;fill:none;stroke:rgb(51,51,51);stroke-width:1px;stroke-linecap:butt;stroke-miterlimit:1.41421;">RECENT<tspan x="343.195px 345.695px " y="293.91px 293.91px "> C</tspan>LIENTS</text>
            </g>
            <g transform="matrix(4.34388,0,0,4.34388,-945.363,-1026.24)">
                <path d="M332.698,309.469L323.681,309.469L318.16,304.115" style="fill:none;stroke:rgb(51,51,51);stroke-width:3px;"/>
            </g>
            <g transform="matrix(4.22403,0,0,4.34388,-905.487,-1026.24)">
                <path d="M347.549,304.115L341.792,309.469L332.714,309.469" style="fill:none;stroke:rgb(51,51,51);stroke-width:3.04px;"/>
            </g>
        </g>
    </g>
</svg>
